<svg width="26" height="26" viewBox="0 0 26 26" fill="none" xmlns="http://www.w3.org/2000/svg">
                        <path
                            d="M26 4.134L11.167 18.98L5.655 13.468L7.488 11.635L11.167 15.314L24.167 2.314L26 4.134ZM23.127 10.686C23.296 11.427 23.4 12.207 23.4 13C23.4 18.746 18.746 23.4 13 23.4C7.254 23.4 2.6 18.746 2.6 13C2.6 7.254 7.254 2.6 13 2.6C15.054 2.6 16.952 3.198 18.564 4.225L20.436 2.353C18.33 0.871 15.769 0 13 0C5.824 0 0 5.824 0 13C0 20.176 5.824 26 13 26C20.176 26 26 20.176 26 13C26 11.453 25.714 9.971 25.22 8.593L23.127 10.686Z"
                            fill="#E31E24" />
                    </svg>