 <svg width="18" height="18" viewBox="0 0 18 18" fill="none" xmlns="http://www.w3.org/2000/svg">
                            <path d="M17.01 12.38C15.78 12.38 14.59 12.18 13.48 11.82C13.13 11.7 12.74 11.79 12.47 12.06L10.9 14.03C8.07 12.68 5.42 10.13 4.01 7.19999L5.96 5.53999C6.23 5.25999 6.31 4.86999 6.2 4.51999C5.83 3.40999 5.64 2.21999 5.64 0.989992C5.64 0.449992 5.19 -7.62939e-06 4.65 -7.62939e-06H1.19C0.65 -7.62939e-06 0 0.239992 0 0.989992C0 10.28 7.73 18 17.01 18C17.72 18 18 17.37 18 16.82V13.37C18 12.83 17.55 12.38 17.01 12.38Z" fill="#2B2A29"/>
                            </svg>